<svg width="21" height="20" viewBox="0 0 21 20" fill="none" xmlns="http://www.w3.org/2000/svg">
<path d="M20.5664 9.14062C20.5664 9.89062 20.4688 10.6289 20.2734 11.3555C20.0859 12.082 19.8047 12.7422 19.4297 13.3359C19.0547 13.9219 18.5898 14.3906 18.0352 14.7422C17.4805 15.0938 16.8438 15.2695 16.125 15.2695C15.5547 15.2695 15.0117 15.1523 14.4961 14.918C13.9805 14.6758 13.5742 14.3281 13.2773 13.875H13.1016C12.7422 14.2656 12.3086 14.5977 11.8008 14.8711C11.3008 15.1367 10.7188 15.2695 10.0547 15.2695C8.57031 15.2695 7.45703 14.8359 6.71484 13.9688C5.98047 13.0938 5.61328 11.9414 5.61328 10.5117C5.61328 9.45703 5.83984 8.51172 6.29297 7.67578C6.75391 6.83203 7.42969 6.16797 8.32031 5.68359C9.21094 5.19141 10.3086 4.94531 11.6133 4.94531C12.3945 4.94531 13.1602 5.01953 13.9102 5.16797C14.668 5.31641 15.2969 5.48047 15.7969 5.66016L15.5508 10.6055C15.5508 10.6914 15.5469 10.8438 15.5391 11.0625C15.5312 11.2812 15.5273 11.4961 15.5273 11.707C15.5273 12.082 15.582 12.3438 15.6914 12.4922C15.8008 12.6406 15.9375 12.7148 16.1016 12.7148C16.3906 12.7148 16.6367 12.5508 16.8398 12.2227C17.043 11.8945 17.1992 11.457 17.3086 10.9102C17.418 10.3633 17.4727 9.76562 17.4727 9.11719C17.4727 7.92188 17.2461 6.88672 16.793 6.01172C16.3398 5.13672 15.6641 4.46094 14.7656 3.98438C13.8672 3.50781 12.7461 3.26953 11.4023 3.26953C10.2148 3.26953 9.16797 3.45703 8.26172 3.83203C7.35547 4.20703 6.59766 4.73828 5.98828 5.42578C5.37891 6.10547 4.91797 6.91016 4.60547 7.83984C4.30078 8.76953 4.14844 9.78906 4.14844 10.8984C4.14844 12.1562 4.38672 13.2539 4.86328 14.1914C5.33984 15.1289 6.05078 15.8555 6.99609 16.3711C7.94141 16.8789 9.12109 17.1328 10.5352 17.1328C11.4258 17.1328 12.4102 17.0312 13.4883 16.8281C14.5742 16.625 15.5977 16.3516 16.5586 16.0078V18.6914C15.7305 19.043 14.8125 19.3164 13.8047 19.5117C12.8047 19.707 11.7695 19.8047 10.6992 19.8047C8.65234 19.8047 6.90234 19.4414 5.44922 18.7148C3.99609 17.9961 2.88281 16.9688 2.10938 15.6328C1.34375 14.2891 0.960938 12.6953 0.960938 10.8516C0.960938 9.40625 1.20312 8.06641 1.6875 6.83203C2.17188 5.59766 2.86719 4.51562 3.77344 3.58594C4.6875 2.65625 5.78125 1.93359 7.05469 1.41797C8.33594 0.902344 9.76953 0.644531 11.3555 0.644531C13.207 0.644531 14.8203 0.988281 16.1953 1.67578C17.5781 2.36328 18.6523 3.34375 19.418 4.61719C20.1836 5.88281 20.5664 7.39062 20.5664 9.14062ZM8.90625 10.4883C8.90625 11.2695 9.04688 11.8359 9.32812 12.1875C9.61719 12.5391 9.99609 12.7148 10.4648 12.7148C11.0977 12.7148 11.5469 12.4609 11.8125 11.9531C12.0859 11.4375 12.2617 10.5898 12.3398 9.41016L12.457 7.58203C12.3008 7.55859 12.1641 7.54297 12.0469 7.53516C11.9375 7.51953 11.8086 7.51172 11.6602 7.51172C11.0195 7.51172 10.4961 7.64844 10.0898 7.92188C9.68359 8.19531 9.38281 8.55859 9.1875 9.01172C9 9.45703 8.90625 9.94922 8.90625 10.4883Z" fill="url(#paint0_linear_2938_70)"/>
<defs>
<linearGradient id="paint0_linear_2938_70" x1="0.718954" y1="-8.99998" x2="21.99" y2="-8.53255" gradientUnits="userSpaceOnUse">
<stop stop-color="#FF9F47"/>
<stop offset="1" stop-color="#FDB806"/>
</linearGradient>
</defs>
</svg>
