<svg width="38" height="38" viewBox="0 0 38 38" fill="none" xmlns="http://www.w3.org/2000/svg">
<g clip-path="url(#clip0_2938_78)" filter="url(#filter0_d_2938_78)">
<path d="M24.625 0H13.375C8.19531 0 4 4.19531 4 9.375V20.625C4 25.8047 8.19531 30 13.375 30H24.625C29.8047 30 34 25.8047 34 20.625V9.375C34 4.19531 29.8047 0 24.625 0ZM31.1875 20.625C31.1875 24.2461 28.2461 27.1875 24.625 27.1875H13.375C9.75391 27.1875 6.8125 24.2461 6.8125 20.625V9.375C6.8125 5.75391 9.75391 2.8125 13.375 2.8125H24.625C28.2461 2.8125 31.1875 5.75391 31.1875 9.375V20.625Z" fill="url(#paint0_linear_2938_78)"/>
<path d="M19 7.5C14.8574 7.5 11.5 10.8574 11.5 15C11.5 19.1426 14.8574 22.5 19 22.5C23.1426 22.5 26.5 19.1426 26.5 15C26.5 10.8574 23.1426 7.5 19 7.5ZM19 19.6875C16.416 19.6875 14.3125 17.584 14.3125 15C14.3125 12.416 16.416 10.3125 19 10.3125C21.584 10.3125 23.6875 12.416 23.6875 15C23.6875 17.584 21.584 19.6875 19 19.6875Z" fill="url(#paint1_linear_2938_78)"/>
<path d="M27.0625 7.93945C27.6159 7.93945 28.0645 7.49086 28.0645 6.9375C28.0645 6.38414 27.6159 5.93555 27.0625 5.93555C26.5091 5.93555 26.0605 6.38414 26.0605 6.9375C26.0605 7.49086 26.5091 7.93945 27.0625 7.93945Z" fill="url(#paint2_linear_2938_78)"/>
</g>
<defs>
<filter id="filter0_d_2938_78" x="0" y="0" width="38" height="38" filterUnits="userSpaceOnUse" color-interpolation-filters="sRGB">
<feFlood flood-opacity="0" result="BackgroundImageFix"/>
<feColorMatrix in="SourceAlpha" type="matrix" values="0 0 0 0 0 0 0 0 0 0 0 0 0 0 0 0 0 0 127 0" result="hardAlpha"/>
<feOffset dy="4"/>
<feGaussianBlur stdDeviation="2"/>
<feComposite in2="hardAlpha" operator="out"/>
<feColorMatrix type="matrix" values="0 0 0 0 0 0 0 0 0 0 0 0 0 0 0 0 0 0 0.25 0"/>
<feBlend mode="normal" in2="BackgroundImageFix" result="effect1_dropShadow_2938_78"/>
<feBlend mode="normal" in="SourceGraphic" in2="effect1_dropShadow_2938_78" result="shape"/>
</filter>
<linearGradient id="paint0_linear_2938_78" x1="4.98039" y1="1.70271e-05" x2="33.9629" y2="1.0422" gradientUnits="userSpaceOnUse">
<stop stop-color="#FF9F47"/>
<stop offset="1" stop-color="#FDB806"/>
</linearGradient>
<linearGradient id="paint1_linear_2938_78" x1="11.9902" y1="7.50001" x2="26.4814" y2="8.0211" gradientUnits="userSpaceOnUse">
<stop stop-color="#FF9F47"/>
<stop offset="1" stop-color="#FDB806"/>
</linearGradient>
<linearGradient id="paint2_linear_2938_78" x1="26.126" y1="5.93555" x2="28.062" y2="6.00516" gradientUnits="userSpaceOnUse">
<stop stop-color="#FF9F47"/>
<stop offset="1" stop-color="#FDB806"/>
</linearGradient>
<clipPath id="clip0_2938_78">
<rect width="30" height="30" fill="white" transform="translate(4)"/>
</clipPath>
</defs>
</svg>
