<svg width="48" height="55" viewBox="0 0 48 55" fill="none" xmlns="http://www.w3.org/2000/svg">
<g filter="url(#filter0_d_69_219)">
<path d="M44 40.8754C44 41.8744 43.1709 42.6841 42.1481 42.6841H40.2963V44.4927C40.2963 45.4917 39.4672 46.3014 38.4444 46.3014C37.4217 46.3014 36.5926 45.4917 36.5926 44.4927V42.6841H34.7407C33.718 42.6841 32.8889 41.8744 32.8889 40.8754C32.8889 39.8765 33.718 39.0668 34.7407 39.0668H36.5926V37.2582C36.5926 36.2592 37.4217 35.4495 38.4444 35.4495C39.4672 35.4495 40.2963 36.2592 40.2963 37.2582V39.0668H42.1481C43.1709 39.0668 44 39.8765 44 40.8754ZM44 12.6605V30.0236C44 31.0225 43.1709 31.8322 42.1481 31.8322C41.1254 31.8322 40.2963 31.0225 40.2963 30.0236V14.4692H36.5926V19.8951C36.5926 20.894 35.7635 21.7038 34.7407 21.7038C33.718 21.7038 32.8889 20.894 32.8889 19.8951V14.4692H15.1111V19.8951C15.1111 20.894 14.282 21.7038 13.2593 21.7038C12.2365 21.7038 11.4074 20.894 11.4074 19.8951V14.4692H7.7037V42.6841H27.3333C28.3561 42.6841 29.1852 43.4938 29.1852 44.4927C29.1852 45.4917 28.3561 46.3014 27.3333 46.3014H5.85185C4.82907 46.3014 4 45.4917 4 44.4927V12.6605C4 11.6616 4.82907 10.8519 5.85185 10.8519H11.495C12.2306 4.74978 17.5577 0 24 0C30.4423 0 35.7693 4.74978 36.505 10.8519H42.1481C43.1709 10.8519 44 11.6616 44 12.6605ZM32.7647 10.8519C32.0573 6.75123 28.3966 3.6173 24 3.6173C19.6034 3.6173 15.9427 6.75123 15.2353 10.8519H32.7647Z" fill="url(#paint0_linear_69_219)"/>
</g>
<defs>
<filter id="filter0_d_69_219" x="0" y="0" width="48" height="54.3014" filterUnits="userSpaceOnUse" color-interpolation-filters="sRGB">
<feFlood flood-opacity="0" result="BackgroundImageFix"/>
<feColorMatrix in="SourceAlpha" type="matrix" values="0 0 0 0 0 0 0 0 0 0 0 0 0 0 0 0 0 0 127 0" result="hardAlpha"/>
<feOffset dy="4"/>
<feGaussianBlur stdDeviation="2"/>
<feComposite in2="hardAlpha" operator="out"/>
<feColorMatrix type="matrix" values="0 0 0 0 0 0 0 0 0 0 0 0 0 0 0 0 0 0 0.25 0"/>
<feBlend mode="normal" in2="BackgroundImageFix" result="effect1_dropShadow_69_219"/>
<feBlend mode="normal" in="SourceGraphic" in2="effect1_dropShadow_69_219" result="shape"/>
</filter>
<linearGradient id="paint0_linear_69_219" x1="5.30719" y1="2.62792e-05" x2="43.9632" y2="1.20089" gradientUnits="userSpaceOnUse">
<stop stop-color="#FF9F47"/>
<stop offset="1" stop-color="#FDB806"/>
</linearGradient>
</defs>
</svg>
