<svg width="27" height="27" viewBox="0 0 27 27" fill="none" xmlns="http://www.w3.org/2000/svg">
<path d="M26.4219 12.1875C26.4219 13.6562 26.1667 15.026 25.6562 16.2969C25.1562 17.5677 24.4583 18.5625 23.5625 19.2812C22.6667 20 21.6458 20.3594 20.5 20.3594C19.6771 20.3594 18.9323 20.1979 18.2656 19.875C17.599 19.5417 17.0781 19.0833 16.7031 18.5H16.4688C15.3542 19.7396 14 20.3594 12.4062 20.3594C10.5 20.3594 9.03646 19.8021 8.01562 18.6875C6.99479 17.5729 6.48438 16.0156 6.48438 14.0156C6.48438 12.5469 6.80729 11.25 7.45312 10.125C8.09896 8.98958 9.03125 8.11979 10.25 7.51562C11.4688 6.90104 12.8802 6.59375 14.4844 6.59375C15.3281 6.59375 16.2552 6.68229 17.2656 6.85938C18.2865 7.02604 19.2188 7.25521 20.0625 7.54688L19.7344 14.1406L19.7031 15.6094C19.7031 16.5052 19.9583 16.9531 20.4688 16.9531C21.0104 16.9531 21.4479 16.5 21.7812 15.5938C22.125 14.6875 22.2969 13.5417 22.2969 12.1562C22.2969 9.66667 21.5938 7.74479 20.1875 6.39062C18.7812 5.03646 16.7865 4.35938 14.2031 4.35938C12.224 4.35938 10.5 4.77083 9.03125 5.59375C7.57292 6.41667 6.45833 7.59896 5.6875 9.14062C4.91667 10.6719 4.53125 12.4688 4.53125 14.5312C4.53125 17.1875 5.27083 19.2396 6.75 20.6875C8.23958 22.125 10.3385 22.8438 13.0469 22.8438C14.2552 22.8438 15.5573 22.7135 16.9531 22.4531C18.3594 22.1927 19.7344 21.8229 21.0781 21.3438V24.9219C18.7448 25.9115 16.1406 26.4062 13.2656 26.4062C9.22396 26.4062 6.04688 25.3542 3.73438 23.25C1.43229 21.1354 0.28125 18.2083 0.28125 14.4688C0.28125 11.8333 0.875 9.47396 2.0625 7.39062C3.26042 5.29688 4.90625 3.6875 7 2.5625C9.10417 1.42708 11.4844 0.859375 14.1406 0.859375C16.5781 0.859375 18.7292 1.32292 20.5938 2.25C22.4688 3.17708 23.9062 4.5 24.9062 6.21875C25.9167 7.92708 26.4219 9.91667 26.4219 12.1875ZM10.875 13.9844C10.875 15.026 11.0625 15.7812 11.4375 16.25C11.8229 16.7188 12.3281 16.9531 12.9531 16.9531C13.7552 16.9531 14.3438 16.6302 14.7188 15.9844C15.0938 15.3385 15.3385 14.1927 15.4531 12.5469L15.6094 10.1094C15.1927 10.0469 14.8385 10.0156 14.5469 10.0156C13.4219 10.0156 12.526 10.3646 11.8594 11.0625C11.2031 11.7604 10.875 12.7344 10.875 13.9844Z" fill="url(#paint0_linear_104_465)"/>
<defs>
<linearGradient id="paint0_linear_104_465" x1="-0.0522882" y1="-12" x2="27.983" y2="-11.3039" gradientUnits="userSpaceOnUse">
<stop stop-color="#FFDB47"/>
<stop offset="1" stop-color="#FDCC06"/>
</linearGradient>
</defs>
</svg>
