<svg width="23" height="30" viewBox="0 0 23 30" fill="none" xmlns="http://www.w3.org/2000/svg">
<path d="M11.247 0C5.04718 0 0 4.875 0 10.8633C0 18.2988 10.064 29.2148 10.4947 29.6719C10.8951 30.1055 11.5988 30.1055 11.9992 29.6719C12.4299 29.209 22.4939 18.2988 22.4939 10.8633C22.5 4.875 17.4528 0 11.247 0ZM11.247 16.3301C8.12887 16.3301 5.58708 13.875 5.58708 10.8633C5.58708 7.85156 8.12887 5.39648 11.247 5.39648C14.3651 5.39648 16.9068 7.85156 16.9068 10.8633C16.9068 13.875 14.3711 16.3301 11.247 16.3301Z" fill="url(#paint0_linear_104_469)"/>
<defs>
<linearGradient id="paint0_linear_104_469" x1="0.735096" y1="1.70254e-05" x2="22.4784" y2="0.586319" gradientUnits="userSpaceOnUse">
<stop stop-color="#FFDB47"/>
<stop offset="1" stop-color="#FDCC06"/>
</linearGradient>
</defs>
</svg>
