<svg width="90" height="90" viewBox="0 0 90 90" fill="none" xmlns="http://www.w3.org/2000/svg">
<path d="M45 42.1875C52.2811 42.1875 58.1836 36.285 58.1836 29.0039C58.1836 21.7228 52.2811 15.8203 45 15.8203C37.7189 15.8203 31.8164 21.7228 31.8164 29.0039C31.8164 36.285 37.7189 42.1875 45 42.1875Z" fill="url(#paint0_linear_104_450)"/>
<path d="M45 0C30.7427 0 15.9961 10.8482 15.9961 29.0039C15.9961 45.589 41.8741 77.182 42.9736 78.5055C43.4756 79.1054 44.2172 79.4531 45 79.4531C45.7828 79.4531 46.5244 79.1054 47.0264 78.5055C48.1259 77.182 74.0039 45.589 74.0039 29.0039C74.0039 13.0112 60.9928 0 45 0ZM45 47.4609C34.8238 47.4609 26.543 39.1801 26.543 29.0039C26.543 18.8278 34.8238 10.5469 45 10.5469C55.1762 10.5469 63.457 18.8278 63.457 29.0039C63.457 39.1801 55.1762 47.4609 45 47.4609Z" fill="url(#paint1_linear_104_450)"/>
<path d="M62.7692 66.4121C57.6853 73.7726 52.9323 79.6495 51.082 81.8761C49.5628 83.6914 47.3483 84.7266 45 84.7266C42.6517 84.7266 40.4372 83.6914 38.9283 81.889C37.0737 79.6569 32.3176 73.7758 27.2312 66.4121C20.4056 68.8242 15.9961 72.582 15.9961 76.8164C15.9961 84.0973 28.9818 90.0001 45 90.0001C61.0182 90.0001 74.0039 84.0973 74.0039 76.8164C74.0039 72.5822 69.5946 68.8242 62.7692 66.4121Z" fill="url(#paint2_linear_104_450)"/>
<defs>
<linearGradient id="paint0_linear_104_450" x1="32.6781" y1="15.8203" x2="58.151" y2="16.7363" gradientUnits="userSpaceOnUse">
<stop stop-color="#FFDB47"/>
<stop offset="1" stop-color="#FDCC06"/>
</linearGradient>
<linearGradient id="paint1_linear_104_450" x1="17.8918" y1="4.50951e-05" x2="73.9659" y2="1.47218" gradientUnits="userSpaceOnUse">
<stop stop-color="#FFDB47"/>
<stop offset="1" stop-color="#FDCC06"/>
</linearGradient>
<linearGradient id="paint2_linear_104_450" x1="17.8918" y1="66.4121" x2="73.5692" y2="71.3357" gradientUnits="userSpaceOnUse">
<stop stop-color="#FFDB47"/>
<stop offset="1" stop-color="#FDCC06"/>
</linearGradient>
</defs>
</svg>
