<svg width="30" height="30" viewBox="0 0 30 30" fill="none" xmlns="http://www.w3.org/2000/svg">
<g clip-path="url(#clip0_104_459)">
<path d="M29.2097 22.0213L25.0134 17.8332C23.5152 16.3379 20.9694 16.9337 20.3665 18.8787C19.9159 20.2222 18.4177 20.9699 17.0716 20.672C14.0751 19.9243 10.031 16.0341 9.28188 12.8974C8.83123 11.554 9.73252 10.0587 11.0786 9.60888C13.0275 9.01309 13.6244 6.46636 12.1262 4.97103L7.92994 0.78295C6.73018 -0.262611 4.93346 -0.262611 3.88586 0.78295L1.04153 3.62758C-1.80279 6.61823 1.34586 14.5446 8.38644 21.5715C15.427 28.5984 23.3689 31.8869 26.3654 28.8963L29.2097 26.0575C30.2573 24.8601 30.2573 23.0668 29.2097 22.0213Z" fill="url(#paint0_linear_104_459)"/>
</g>
<defs>
<linearGradient id="paint0_linear_104_459" x1="0.979355" y1="-0.00120367" x2="29.9583" y2="1.04063" gradientUnits="userSpaceOnUse">
<stop stop-color="#FFDB47"/>
<stop offset="1" stop-color="#FDCC06"/>
</linearGradient>
<clipPath id="clip0_104_459">
<rect width="30" height="30" fill="white"/>
</clipPath>
</defs>
</svg>
